<svg width="90" height="90" viewBox="0 0 90 90" fill="none" xmlns="http://www.w3.org/2000/svg">
<g clip-path="url(#clip0_1_2)">
<path d="M75.9375 67.5C74.6841 67.5063 73.4483 67.7955 72.3223 68.346L60.2272 56.25H50.625V61.875H57.8978L68.3452 72.3229C67.7956 73.449 67.5067 74.6844 67.5 75.9375C67.5 77.6063 67.9948 79.2376 68.922 80.6251C69.8491 82.0127 71.1669 83.0941 72.7086 83.7327C74.2504 84.3713 75.9469 84.5384 77.5836 84.2129C79.2203 83.8873 80.7237 83.0837 81.9037 81.9037C83.0837 80.7237 83.8873 79.2203 84.2129 77.5836C84.5384 75.9469 84.3713 74.2504 83.7327 72.7086C83.0941 71.1669 82.0127 69.8491 80.6251 68.922C79.2376 67.9948 77.6063 67.5 75.9375 67.5ZM75.9375 78.75C75.3812 78.75 74.8375 78.5851 74.375 78.276C73.9124 77.967 73.552 77.5277 73.3391 77.0138C73.1262 76.4999 73.0705 75.9344 73.179 75.3888C73.2876 74.8432 73.5554 74.3421 73.9488 73.9488C74.3421 73.5554 74.8432 73.2876 75.3888 73.179C75.9344 73.0705 76.4999 73.1262 77.0138 73.3391C77.5277 73.552 77.967 73.9124 78.276 74.375C78.585 74.8375 78.75 75.3812 78.75 75.9375C78.7493 76.6832 78.4528 77.3982 77.9255 77.9255C77.3982 78.4528 76.6832 78.7493 75.9375 78.75Z" fill="#00C0EA"/>
<path d="M75.9375 36.5625C74.1983 36.5678 72.5033 37.1113 71.0854 38.1184C69.6675 39.1256 68.5961 40.547 68.0183 42.1875H50.625V47.8125H68.0183C68.5366 49.2668 69.4446 50.5506 70.6432 51.5238C71.8417 52.4969 73.2847 53.1219 74.8144 53.3305C76.3441 53.539 77.9017 53.3231 79.317 52.7064C80.7323 52.0896 81.9508 51.0957 82.8395 49.8332C83.7282 48.5708 84.2528 47.0884 84.3559 45.548C84.4591 44.0076 84.1369 42.4684 83.4246 41.0987C82.7122 39.7291 81.6371 38.5815 80.3167 37.7815C78.9963 36.9815 77.4814 36.5598 75.9375 36.5625ZM75.9375 47.8125C75.3812 47.8125 74.8375 47.6475 74.375 47.3385C73.9124 47.0295 73.552 46.5902 73.3391 46.0763C73.1262 45.5624 73.0705 44.9969 73.179 44.4513C73.2876 43.9057 73.5554 43.4046 73.9488 43.0113C74.3421 42.6179 74.8432 42.3501 75.3888 42.2415C75.9344 42.133 76.4999 42.1887 77.0138 42.4016C77.5277 42.6145 77.967 42.9749 78.276 43.4375C78.5851 43.9 78.75 44.4437 78.75 45C78.7493 45.7457 78.4528 46.4607 77.9255 46.988C77.3982 47.5153 76.6832 47.8118 75.9375 47.8125Z" fill="#00C0EA"/>
<path d="M75.9375 5.625C73.7005 5.62746 71.5558 6.51719 69.974 8.099C68.3922 9.68081 67.5025 11.8255 67.5 14.0625C67.5097 15.4099 67.8456 16.7348 68.479 17.9241L57.9254 28.125H50.625V33.75H60.1996L72.5715 21.7901C73.7208 22.2911 74.9674 22.5295 76.2205 22.4881C77.4735 22.4466 78.7016 22.1263 79.8153 21.5504C80.929 20.9745 81.9003 20.1576 82.6585 19.1591C83.4166 18.1606 83.9427 17.0055 84.1983 15.7781C84.4538 14.5507 84.4326 13.2817 84.1359 12.0635C83.8393 10.8454 83.2748 9.70865 82.4836 8.73612C81.6923 7.76359 80.6941 6.97971 79.5618 6.44153C78.4294 5.90335 77.1913 5.6244 75.9375 5.625ZM75.9375 16.875C75.3812 16.875 74.8375 16.7101 74.375 16.401C73.9124 16.092 73.552 15.6527 73.3391 15.1388C73.1262 14.6249 73.0705 14.0594 73.179 13.5138C73.2876 12.9682 73.5554 12.4671 73.9488 12.0738C74.3421 11.6804 74.8432 11.4126 75.3888 11.304C75.9344 11.1955 76.4999 11.2512 77.0138 11.4641C77.5277 11.677 77.967 12.0374 78.276 12.5C78.5851 12.9625 78.75 13.5062 78.75 14.0625C78.7493 14.8082 78.4528 15.5232 77.9255 16.0505C77.3982 16.5778 76.6832 16.8743 75.9375 16.875Z" fill="#00C0EA"/>
<path d="M50.625 16.875H56.25V11.25H50.625C49.0221 11.2554 47.4392 11.6053 45.9834 12.2761C44.5276 12.9469 43.2331 13.9228 42.1875 15.1377C41.1419 13.9228 39.8474 12.9469 38.3916 12.2761C36.9358 11.6053 35.3529 11.2554 33.75 11.25H30.9375C24.2265 11.2574 17.7925 13.9267 13.0471 18.6721C8.30168 23.4175 5.63244 29.8515 5.625 36.5625V53.4375C5.63244 60.1485 8.30168 66.5825 13.0471 71.3279C17.7925 76.0733 24.2265 78.7426 30.9375 78.75H33.75C35.3529 78.7446 36.9358 78.3947 38.3916 77.7239C39.8474 77.0531 41.1419 76.0772 42.1875 74.8623C43.2331 76.0772 44.5276 77.0531 45.9834 77.7239C47.4392 78.3947 49.0221 78.7446 50.625 78.75H56.25V73.125H50.625C49.1337 73.1233 47.7039 72.5301 46.6494 71.4756C45.5949 70.4211 45.0017 68.9913 45 67.5V22.5C45.0017 21.0087 45.5949 19.5789 46.6494 18.5244C47.7039 17.4699 49.1337 16.8767 50.625 16.875ZM33.75 73.125H30.9375C26.2081 73.1167 21.6394 71.4073 18.0661 68.3091C14.4928 65.2108 12.1533 60.9305 11.475 56.25H16.875V50.625H11.25V39.375H19.6875C21.9245 39.3725 24.0692 38.4828 25.651 36.901C27.2328 35.3192 28.1225 33.1745 28.125 30.9375V25.3125H22.5V30.9375C22.4993 31.6832 22.2028 32.3982 21.6755 32.9255C21.1482 33.4528 20.4332 33.7493 19.6875 33.75H11.475C12.1533 29.0695 14.4928 24.7892 18.0661 21.6909C21.6394 18.5927 26.2081 16.8833 30.9375 16.875H33.75C35.2413 16.8767 36.6711 17.4699 37.7256 18.5244C38.7801 19.5789 39.3733 21.0087 39.375 22.5V33.75H33.75V39.375H39.375V50.625H33.75C31.513 50.6275 29.3683 51.5172 27.7865 53.099C26.2047 54.6808 25.315 56.8255 25.3125 59.0625V64.6875H30.9375V59.0625C30.9382 58.3168 31.2347 57.6018 31.762 57.0745C32.2893 56.5472 33.0043 56.2507 33.75 56.25H39.375V67.5C39.3733 68.9913 38.7801 70.4211 37.7256 71.4756C36.6711 72.5301 35.2413 73.1233 33.75 73.125Z" fill="#00C0EA"/>
</g>
<defs>
<clipPath id="clip0_1_2">
<rect width="90" height="90" fill="white"/>
</clipPath>
</defs>
</svg>
