<svg width="90" height="90" viewBox="0 0 90 90" fill="none" xmlns="http://www.w3.org/2000/svg">
<path d="M71.4301 78.2748H50.6953C50.187 78.2753 49.6996 78.4775 49.3402 78.837C48.9807 79.1965 48.7786 79.6838 48.778 80.1921V85.4476C48.7786 85.9559 48.9808 86.4432 49.3402 86.8027C49.6996 87.1621 50.187 87.3643 50.6953 87.3649H71.4301C71.9384 87.3643 72.4258 87.1621 72.7852 86.8027C73.1446 86.4432 73.3468 85.9559 73.3474 85.4476V80.1921C73.3468 79.6838 73.1447 79.1964 72.7852 78.837C72.4258 78.4775 71.9384 78.2753 71.4301 78.2748ZM55.7723 83.8745H53.8296C53.5499 83.8745 53.2816 83.7634 53.0838 83.5656C52.886 83.3678 52.7749 83.0996 52.7749 82.8198C52.7749 82.5401 52.886 82.2719 53.0838 82.0741C53.2816 81.8763 53.5499 81.7652 53.8296 81.7652H55.7723C56.052 81.7652 56.3203 81.8763 56.5181 82.0741C56.7159 82.2719 56.827 82.5401 56.827 82.8198C56.827 83.0996 56.7159 83.3678 56.5181 83.5656C56.3203 83.7634 56.052 83.8745 55.7723 83.8745Z" fill="#00C0EA"/>
<path d="M71.4301 55.3474H50.6953C50.187 55.348 49.6996 55.5502 49.3402 55.9096C48.9808 56.269 48.7786 56.7564 48.778 57.2647V62.5201C48.7786 63.0284 48.9808 63.5158 49.3402 63.8752C49.6996 64.2347 50.187 64.4368 50.6953 64.4374H71.4301C71.9384 64.4368 72.4257 64.2346 72.7852 63.8752C73.1446 63.5158 73.3468 63.0284 73.3473 62.5201V57.2647C73.3468 56.7564 73.1446 56.269 72.7852 55.9096C72.4257 55.5502 71.9384 55.348 71.4301 55.3474ZM55.7723 60.9471H53.8296C53.5499 60.9471 53.2816 60.836 53.0838 60.6382C52.886 60.4404 52.7749 60.1721 52.7749 59.8924C52.7749 59.6127 52.886 59.3444 53.0838 59.1466C53.2816 58.9488 53.5499 58.8377 53.8296 58.8377H55.7723C56.052 58.8377 56.3203 58.9488 56.5181 59.1466C56.7159 59.3444 56.827 59.6127 56.827 59.8924C56.827 60.1721 56.7159 60.4404 56.5181 60.6382C56.3203 60.836 56.052 60.9471 55.7723 60.9471Z" fill="#00C0EA"/>
<path d="M71.4301 66.8111H50.6953C50.187 66.8116 49.6996 67.0138 49.3402 67.3733C48.9807 67.7327 48.7786 68.2201 48.778 68.7284V73.9838C48.7786 74.4922 48.9808 74.9795 49.3402 75.3389C49.6996 75.6984 50.187 75.9006 50.6953 75.9011H71.4301C71.9384 75.9006 72.4258 75.6984 72.7852 75.3389C73.1446 74.9795 73.3468 74.4922 73.3474 73.9838V68.7284C73.3468 68.2201 73.1447 67.7327 72.7852 67.3733C72.4258 67.0138 71.9384 66.8116 71.4301 66.8111ZM55.7723 72.4108H53.8296C53.5499 72.4108 53.2816 72.2997 53.0838 72.1019C52.886 71.9041 52.7749 71.6359 52.7749 71.3561C52.7749 71.0764 52.886 70.8082 53.0838 70.6104C53.2816 70.4126 53.5499 70.3015 53.8296 70.3015H55.7723C56.052 70.3015 56.3203 70.4126 56.5181 70.6104C56.7159 70.8082 56.827 71.0764 56.827 71.3561C56.827 71.6359 56.7159 71.9041 56.5181 72.1019C56.3203 72.2997 56.052 72.4108 55.7723 72.4108Z" fill="#00C0EA"/>
<path d="M39.2341 78.2748H18.4993C17.991 78.2754 17.5037 78.4776 17.1442 78.837C16.7848 79.1965 16.5826 79.6838 16.582 80.1921V85.4476C16.5826 85.9559 16.7848 86.4432 17.1442 86.8027C17.5037 87.1621 17.991 87.3643 18.4993 87.3649H39.2341C39.7424 87.3643 40.2298 87.1621 40.5892 86.8027C40.9487 86.4432 41.1508 85.9559 41.1514 85.4476V80.1921C41.1509 79.6838 40.9487 79.1965 40.5892 78.837C40.2298 78.4775 39.7425 78.2753 39.2341 78.2748ZM23.5764 83.8745H21.6335C21.3538 83.8745 21.0855 83.7634 20.8877 83.5656C20.6899 83.3678 20.5788 83.0996 20.5788 82.8198C20.5788 82.5401 20.6899 82.2719 20.8877 82.0741C21.0855 81.8763 21.3538 81.7652 21.6335 81.7652H23.5764C23.8561 81.7652 24.1244 81.8763 24.3221 82.0741C24.5199 82.2719 24.6311 82.5401 24.6311 82.8198C24.6311 83.0996 24.5199 83.3678 24.3221 83.5656C24.1244 83.7634 23.8561 83.8745 23.5764 83.8745Z" fill="#00C0EA"/>
<path d="M39.2341 66.8111H18.4993C17.991 66.8117 17.5037 67.0139 17.1442 67.3733C16.7848 67.7328 16.5826 68.2201 16.582 68.7284V73.9838C16.5826 74.4922 16.7848 74.9795 17.1442 75.3389C17.5036 75.6984 17.991 75.9006 18.4993 75.9011H39.2341C39.7424 75.9006 40.2298 75.6984 40.5892 75.3389C40.9487 74.9795 41.1508 74.4922 41.1514 73.9838V68.7284C41.1509 68.2201 40.9487 67.7327 40.5892 67.3733C40.2298 67.0138 39.7425 66.8116 39.2341 66.8111ZM23.5764 72.4108H21.6335C21.3538 72.4108 21.0855 72.2997 20.8877 72.1019C20.6899 71.9041 20.5788 71.6359 20.5788 71.3561C20.5788 71.0764 20.6899 70.8082 20.8877 70.6104C21.0855 70.4126 21.3538 70.3015 21.6335 70.3015H23.5764C23.8561 70.3015 24.1244 70.4126 24.3221 70.6104C24.5199 70.8082 24.6311 71.0764 24.6311 71.3561C24.6311 71.6359 24.5199 71.9041 24.3221 72.1019C24.1244 72.2997 23.8561 72.4108 23.5764 72.4108Z" fill="#00C0EA"/>
<path d="M39.2341 55.3474H18.4993C17.991 55.348 17.5036 55.5502 17.1442 55.9096C16.7848 56.269 16.5826 56.7564 16.582 57.2647V62.5201C16.5826 63.0284 16.7848 63.5158 17.1442 63.8752C17.5037 64.2346 17.991 64.4368 18.4993 64.4374H39.2341C39.7424 64.4368 40.2298 64.2347 40.5892 63.8752C40.9487 63.5158 41.1508 63.0284 41.1514 62.5201V57.2647C41.1508 56.7564 40.9487 56.269 40.5892 55.9096C40.2298 55.5502 39.7424 55.348 39.2341 55.3474ZM23.5764 60.9471H21.6335C21.3538 60.9471 21.0855 60.836 20.8877 60.6382C20.6899 60.4404 20.5788 60.1721 20.5788 59.8924C20.5788 59.6127 20.6899 59.3444 20.8877 59.1466C21.0855 58.9488 21.3538 58.8377 21.6335 58.8377H23.5764C23.8561 58.8377 24.1244 58.9488 24.3221 59.1466C24.5199 59.3444 24.6311 59.6127 24.6311 59.8924C24.6311 60.1721 24.5199 60.4404 24.3221 60.6382C24.1244 60.836 23.8561 60.9471 23.5764 60.9471Z" fill="#00C0EA"/>
<path d="M23.9586 23.5279C24.1086 23.5281 24.2572 23.4988 24.3959 23.4415C24.5346 23.3843 24.6607 23.3003 24.7669 23.1944C24.8732 23.0884 24.9575 22.9626 25.0151 22.824C25.0727 22.6855 25.1024 22.5369 25.1026 22.3869C25.1028 22.2368 25.0735 22.0882 25.0162 21.9495C24.959 21.8108 24.875 21.6847 24.769 21.5785C24.6631 21.4723 24.5372 21.3879 24.3987 21.3303C24.2601 21.2727 24.1116 21.243 23.9616 21.2428L23.8956 21.2426C22.3485 21.2426 20.8167 21.5488 19.3885 22.1436C17.9603 22.7384 16.6639 23.61 15.5741 24.7081C14.4843 25.8062 13.6227 27.1092 13.0388 28.5419C12.455 29.9747 12.1605 31.5088 12.1723 33.0558C12.1745 33.3574 12.2958 33.6458 12.5098 33.8583C12.7238 34.0707 13.0131 34.19 13.3147 34.19H13.3233C13.4733 34.1889 13.6217 34.1583 13.7599 34.0998C13.8981 34.0414 14.0234 33.9563 14.1287 33.8494C14.2341 33.7425 14.3173 33.616 14.3737 33.4769C14.4301 33.3379 14.4585 33.1891 14.4574 33.039C14.4478 31.7937 14.6848 30.5588 15.1546 29.4055C15.6244 28.2522 16.3178 27.2032 17.1948 26.3191C18.0719 25.435 19.1152 24.7331 20.2647 24.2541C21.4142 23.775 22.6472 23.5282 23.8925 23.5278L23.9554 23.5279H23.9586Z" fill="#00C0EA"/>
<path d="M25.474 50.1201C25.802 50.7377 26.2919 51.2545 26.8913 51.6148C27.4906 51.9752 28.1768 52.1656 28.8762 52.1656C29.5755 52.1656 30.2617 51.9752 30.861 51.6148C31.4604 51.2545 31.9503 50.7377 32.2783 50.1201H57.6949C58.0229 50.7377 58.5128 51.2545 59.1122 51.6148C59.7115 51.9752 60.3977 52.1656 61.097 52.1656C61.7964 52.1656 62.4825 51.9752 63.0819 51.6148C63.6812 51.2545 64.1712 50.7377 64.4991 50.1201H67.321C76.8988 50.1201 84.748 42.4204 84.8183 32.9562C84.8355 30.674 84.4009 28.411 83.5395 26.2976C82.6782 24.1842 81.407 22.2622 79.7994 20.6424C78.1917 19.0225 76.2794 17.7369 74.1725 16.8595C72.0657 15.9822 69.8061 15.5305 67.5239 15.5305H67.4613C66.4988 15.5294 65.5565 15.2543 64.7447 14.7373C63.9328 14.2203 63.285 13.4828 62.8769 12.611C61.3487 9.32097 58.9121 6.53619 55.854 4.58477C52.7959 2.63334 49.2439 1.59656 45.6162 1.59656C41.9886 1.59656 38.4365 2.63334 35.3784 4.58477C32.3203 6.53619 29.8837 9.32097 28.3555 12.611C27.9471 13.4832 27.2987 14.2209 26.4863 14.738C25.6738 15.255 24.7309 15.5299 23.7679 15.5305H23.7084C21.4262 15.5305 19.1666 15.9822 17.0597 16.8595C14.9529 17.7368 13.0405 19.0225 11.4329 20.6423C9.82522 22.2622 8.55405 24.1842 7.69265 26.2976C6.83124 28.411 6.39664 30.674 6.41388 32.9562C6.4842 42.4204 14.3333 50.1201 23.9111 50.1201H25.474ZM28.8761 49.8804C28.5658 49.8804 28.2625 49.7884 28.0045 49.616C27.7465 49.4436 27.5454 49.1985 27.4267 48.9118C27.308 48.6252 27.2769 48.3097 27.3375 48.0054C27.398 47.701 27.5475 47.4215 27.7669 47.2021C27.9863 46.9827 28.2659 46.8333 28.5702 46.7728C28.8746 46.7122 29.19 46.7433 29.4767 46.8621C29.7634 46.9809 30.0084 47.182 30.1808 47.44C30.3531 47.698 30.4451 48.0013 30.4451 48.3116C30.4446 48.7276 30.2792 49.1264 29.985 49.4205C29.6909 49.7146 29.2921 49.88 28.8761 49.8804ZM57.2756 47.8349H32.6977C32.6066 47.1112 32.3123 46.428 31.849 45.8646C31.3857 45.3011 30.7724 44.8804 30.0799 44.651V37.029C30.0806 36.3512 30.3502 35.7014 30.8295 35.2221C31.3088 34.7428 31.9586 34.4732 32.6364 34.4725H57.3635C58.0413 34.4732 58.6912 34.7428 59.1704 35.2221C59.6497 35.7014 59.9193 36.3512 59.9201 37.029V44.6419C59.2214 44.8678 58.6015 45.2881 58.1331 45.8536C57.6648 46.4191 57.3673 47.1064 57.2756 47.8349ZM61.0971 49.8804C60.7867 49.8804 60.4834 49.7884 60.2254 49.616C59.9674 49.4436 59.7663 49.1986 59.6476 48.9119C59.5288 48.6252 59.4978 48.3098 59.5583 48.0054C59.6188 47.7011 59.7683 47.4215 59.9877 47.2021C60.2071 46.9827 60.4867 46.8333 60.791 46.7728C61.0954 46.7122 61.4108 46.7433 61.6975 46.8621C61.9842 46.9808 62.2292 47.182 62.4016 47.44C62.574 47.698 62.666 48.0013 62.666 48.3116C62.6655 48.7276 62.5 49.1263 62.2059 49.4204C61.9118 49.7145 61.513 49.88 61.0971 49.8804ZM8.69904 32.9393C8.68398 30.9587 9.06109 28.9947 9.80863 27.1605C10.5562 25.3262 11.6593 23.6581 13.0546 22.2522C14.4498 20.8464 16.1095 19.7305 17.938 18.9691C19.7665 18.2076 21.7276 17.8156 23.7083 17.8156H23.7709C25.1687 17.8137 26.537 17.4138 27.7158 16.6627C28.8946 15.9117 29.8351 14.8404 30.4274 13.5744C31.772 10.6792 33.9161 8.22854 36.6071 6.51127C39.2981 4.794 42.4238 3.88162 45.616 3.88162C48.8083 3.88162 51.934 4.794 54.625 6.51127C57.3159 8.22854 59.46 10.6792 60.8046 13.5744C61.3965 14.8401 62.3365 15.9111 63.5148 16.6622C64.693 17.4133 66.0608 17.8134 67.458 17.8156H67.5239C69.5046 17.8156 71.4657 18.2077 73.2942 18.9691C75.1226 19.7306 76.7823 20.8464 78.1776 22.2523C79.5728 23.6581 80.676 25.3262 81.4235 27.1605C82.171 28.9947 82.5481 30.9587 82.5331 32.9393C82.4721 41.1528 75.6481 47.8349 67.321 47.8349H64.9184C64.8252 47.0942 64.5193 46.3964 64.0378 45.826C63.5563 45.2555 62.9197 44.8368 62.2052 44.6206V37.029C62.2037 35.7453 61.6932 34.5147 60.7855 33.607C59.8778 32.6993 58.6471 32.1888 57.3635 32.1873H46.1426V25.7756C47.4137 25.4941 48.5363 24.7532 49.2948 23.695C50.0534 22.6368 50.3946 21.3358 50.253 20.0415C50.1114 18.7473 49.4969 17.5508 48.5275 16.6817C47.5581 15.8126 46.302 15.3319 45 15.3319C43.698 15.3319 42.4418 15.8126 41.4724 16.6817C40.503 17.5508 39.8886 18.7473 39.747 20.0415C39.6054 21.3358 39.9466 22.6368 40.7051 23.695C41.4637 24.7532 42.5862 25.4941 43.8574 25.7756V32.1873H32.6364C31.3527 32.1888 30.1221 32.6994 29.2144 33.607C28.3068 34.5147 27.7962 35.7454 27.7947 37.029V44.613C27.0742 44.8254 26.4312 45.2433 25.9445 45.8156C25.4578 46.3878 25.1486 47.0896 25.0548 47.8349H23.9111C15.584 47.8349 8.75998 41.1528 8.69904 32.9393Z" fill="#00C0EA"/>
</svg>
