<svg width="90" height="90" viewBox="0 0 90 90" fill="none" xmlns="http://www.w3.org/2000/svg">
<path d="M82.6263 80.0181C82.0404 80.6045 81.2605 80.9274 80.4306 80.9274C79.6009 80.9274 78.8212 80.6045 78.2335 80.0167C76.7824 78.5668 75.1484 76.9324 73.6975 75.481C73.1104 74.8937 72.7871 74.1138 72.7871 73.2844C72.7871 72.464 73.1023 71.6932 73.6752 71.1104C73.6827 71.1028 73.6903 71.0954 73.6978 71.0879C74.2841 70.5014 75.0638 70.1784 75.8935 70.1784C76.7234 70.1784 77.5033 70.5014 78.0896 71.0879L78.0908 71.0891C79.5417 72.5389 81.1759 74.1732 82.6268 75.6248C83.2139 76.2121 83.5372 76.9922 83.5372 77.8213C83.5372 78.6505 83.2138 79.4304 82.6263 80.0181ZM37.1513 61.9033C29.608 54.3596 29.608 42.0854 37.1513 34.5417C40.8028 30.89 45.6614 28.8791 50.8322 28.8791C56.0028 28.8791 60.8616 30.89 64.5131 34.5417C72.0566 42.0854 72.0566 54.3596 64.5131 61.9033C60.8616 65.5548 56.0028 67.5659 50.8322 67.5659C45.6614 67.5659 40.8028 65.5548 37.1513 61.9033ZM33.4392 16.7831C31.3135 16.7831 29.5843 15.0539 29.5843 12.9282C29.5843 10.8026 31.3135 9.07329 33.4392 9.07329C35.5649 9.07329 37.2942 10.8026 37.2942 12.9282C37.2942 15.0539 35.5649 16.7831 33.4392 16.7831ZM10.318 49.5856C8.19208 49.5856 6.46274 47.8564 6.46274 45.7307C6.46274 43.6052 8.19208 41.8758 10.318 41.8758C12.4435 41.8758 14.173 43.6052 14.173 45.7307C14.173 47.8564 12.4435 49.5856 10.318 49.5856ZM79.682 21.7155C81.8077 21.7155 83.5372 23.4448 83.5372 25.5704C83.5372 27.697 81.8077 29.427 79.682 29.427C77.5564 29.427 75.8269 27.697 75.8269 25.5704C75.8269 23.4448 77.5564 21.7155 79.682 21.7155ZM81.8195 67.3599C80.2371 65.7768 78.1326 64.9049 75.8935 64.9049C74.6286 64.9049 73.4069 65.1841 72.2977 65.7118L70.1156 63.5301C76.5893 55.3871 77.1597 44.062 71.8265 35.358L74.3698 32.9883C75.8675 34.0643 77.7014 34.7004 79.682 34.7004C84.7155 34.7004 88.8106 30.6047 88.8106 25.5704C88.8106 20.537 84.7155 16.442 79.682 16.442C74.6486 16.442 70.5535 20.537 70.5535 25.5704C70.5535 26.7031 70.7623 27.7875 71.1411 28.7891L68.5881 31.1678C68.4738 31.0488 68.3592 30.9299 68.2419 30.8129C63.5945 26.1652 57.4115 23.6057 50.8322 23.6057C49.9069 23.6057 48.9897 23.658 48.0832 23.7581L41.7659 16.6619C42.2794 15.5213 42.5677 14.2581 42.5677 12.9282C42.5677 7.89485 38.4727 3.79985 33.4392 3.79985C28.4057 3.79985 24.3109 7.89485 24.3109 12.9282C24.3109 14.8317 24.8971 16.6002 25.8975 18.0645L12.5982 36.8908C11.8691 36.7026 11.1049 36.6024 10.318 36.6024C5.2843 36.6024 1.1893 40.6974 1.1893 45.7307C1.1893 50.7642 5.2843 54.859 10.318 54.859C15.3513 54.859 19.4465 50.7642 19.4465 45.7307C19.4465 43.393 18.5619 41.2583 17.1114 39.6416L30.0083 21.385C31.0682 21.8165 32.2259 22.0565 33.4392 22.0565C35.213 22.0565 36.8689 21.5464 38.2714 20.6675L42.2497 25.1362C38.9719 26.3515 35.9667 28.2684 33.4225 30.8129C23.8232 40.4124 23.8231 56.0324 33.4225 65.6321C38.07 70.2798 44.2529 72.8393 50.8322 72.8393C56.5829 72.8393 62.0307 70.8836 66.4152 67.2875L68.4863 69.358C67.851 70.5526 67.5137 71.8922 67.5137 73.2844C67.5137 75.5218 68.3852 77.6259 69.9678 79.2089C71.4195 80.6614 73.0545 82.2965 74.505 83.7459C76.0874 85.3289 78.1919 86.2008 80.4306 86.2008C82.6695 86.2008 84.7742 85.3289 86.3567 83.7459C87.9391 82.1626 88.8106 80.0587 88.8106 77.8213C88.8106 75.584 87.9391 73.4801 86.3567 71.8968C84.9055 70.4448 83.2709 68.8103 81.8195 67.3599Z" fill="#00C0EA"/>
<path d="M61.6194 41.9027C60.1632 41.9027 58.9827 43.0833 58.9827 44.5395V51.0697C58.9827 52.5259 60.1632 53.7065 61.6194 53.7065C63.0756 53.7065 64.2561 52.5259 64.2561 51.0697V44.5395C64.2561 43.0833 63.0756 41.9027 61.6194 41.9027Z" fill="#00C0EA"/>
<path d="M41.1178 41.843C39.6617 41.843 38.4811 43.0235 38.4811 44.4797V51.1295C38.4811 52.5857 39.6617 53.7662 41.1178 53.7662C42.574 53.7662 43.7545 52.5857 43.7545 51.1295V44.4797C43.7545 43.0235 42.574 41.843 41.1178 41.843Z" fill="#00C0EA"/>
<path d="M51.3683 36.9949C49.9122 36.9949 48.7316 38.1755 48.7316 39.6316V55.9775C48.7316 57.4337 49.9122 58.6142 51.3683 58.6142C52.8245 58.6142 54.0051 57.4337 54.0051 55.9775V39.6316C54.0051 38.1755 52.8245 36.9949 51.3683 36.9949Z" fill="#00C0EA"/>
</svg>
