<svg width="90" height="90" viewBox="0 0 90 90" fill="none" xmlns="http://www.w3.org/2000/svg">
<path fill-rule="evenodd" clip-rule="evenodd" d="M3.75 20.625C3.75 11.3052 11.3052 3.75 20.625 3.75H30V11.25H20.625C15.4473 11.25 11.25 15.4473 11.25 20.625V30H3.75V20.625ZM69.375 11.25H60V3.75H69.375C78.6949 3.75 86.25 11.3052 86.25 20.625V30H78.75V20.625C78.75 15.4473 74.5526 11.25 69.375 11.25ZM11.25 60V69.375C11.25 74.5526 15.4473 78.75 20.625 78.75H30V86.25H20.625C11.3052 86.25 3.75 78.6949 3.75 69.375V60H11.25ZM78.75 69.375V60H86.25V69.375C86.25 78.6949 78.6949 86.25 69.375 86.25H60V78.75H69.375C74.5526 78.75 78.75 74.5526 78.75 69.375Z" fill="#00C0EA"/>
<path fill-rule="evenodd" clip-rule="evenodd" d="M24.375 13.125C18.1618 13.125 13.125 18.1618 13.125 24.375V31.875C13.125 38.0884 18.1618 43.125 24.375 43.125H31.875C38.0884 43.125 43.125 38.0884 43.125 31.875V24.375C43.125 18.1618 38.0884 13.125 31.875 13.125H24.375ZM13.125 58.125C13.125 51.9116 18.1618 46.875 24.375 46.875H31.875C38.0884 46.875 43.125 51.9116 43.125 58.125V65.625C43.125 71.8384 38.0884 76.875 31.875 76.875H24.375C18.1618 76.875 13.125 71.8384 13.125 65.625V58.125ZM46.875 24.375C46.875 18.1618 51.9116 13.125 58.125 13.125H65.625C71.8384 13.125 76.875 18.1618 76.875 24.375V31.875C76.875 38.0884 71.8384 43.125 65.625 43.125H58.125C51.9116 43.125 46.875 38.0884 46.875 31.875V24.375ZM46.875 58.125C46.875 51.9116 51.9116 46.875 58.125 46.875H65.625C71.8384 46.875 76.875 51.9116 76.875 58.125V65.625C76.875 71.8384 71.8384 76.875 65.625 76.875H58.125C51.9116 76.875 46.875 71.8384 46.875 65.625V58.125Z" fill="#00C0EA"/>
</svg>
